<svg xmlns="http://www.w3.org/2000/svg" width="24" height="24" viewBox="0 0 24 24" fill="none" stroke="currentColor" stroke-width="2" stroke-linecap="round" stroke-linejoin="round" class="feather feather-bsky"><path
     d="m 5.7268806,3.5626967 c 2.5392118,1.9062801 5.2704224,5.7714222 6.2731854,7.8456823 1.002839,-2.0741073 3.733897,-5.9394411 6.273186,-7.8456823 1.832161,-1.3754957 4.800735,-2.4397759 4.800735,0.94682 0,0.6763498 -0.387778,5.6816853 -0.615214,6.4942813 -0.790563,2.825149 -3.671348,3.545717 -6.233854,3.109596 4.479211,0.762344 5.618679,3.287503 3.157863,5.812663 -4.673577,4.795771 -6.557648,-2.126906 -7.382666,-2.719853 -0.768003,0.581544 -2.7090527,7.515777 -7.3828959,2.719853 C 2.1563658,17.400897 3.2957958,14.875585 7.7750826,14.113394 5.212501,14.549515 2.3316769,13.828943 1.5412284,11.003798 1.3137854,10.191126 0.92601493,5.1857896 0.92601493,4.5095167 c 0,-3.3865959 2.96865097,-2.3223157 4.80073517,-0.94682 z"></path>
</svg>
