<?xml version="1.0" encoding="UTF-8" standalone="no"?>
<!-- Created with Inkscape (http://www.inkscape.org/) -->

<svg
   id="svg-wasi"
   version="1.0"
   viewBox="0 0 189.52865 48"
   width="189.52866"
   height="48"
   sodipodi:docname="WASI-3.svg"
   xml:space="preserve"
   inkscape:export-filename="WASI-3.png"
   inkscape:export-xdpi="1416"
   inkscape:export-ydpi="1416"
   inkscape:version="1.4 (1:1.4+202410161351+e7c3feb100)"
   xmlns:inkscape="http://www.inkscape.org/namespaces/inkscape"
   xmlns:sodipodi="http://sodipodi.sourceforge.net/DTD/sodipodi-0.dtd"
   xmlns="http://www.w3.org/2000/svg"
   xmlns:svg="http://www.w3.org/2000/svg"><defs
     id="defs1" /><sodipodi:namedview
     id="namedview1"
     pagecolor="#505050"
     bordercolor="#ffffff"
     borderopacity="1"
     inkscape:showpageshadow="0"
     inkscape:pageopacity="0"
     inkscape:pagecheckerboard="1"
     inkscape:deskcolor="#d1d1d1"
     inkscape:zoom="8.8371006"
     inkscape:cx="52.675648"
     inkscape:cy="42.321573"
     inkscape:window-width="1920"
     inkscape:window-height="1010"
     inkscape:window-x="0"
     inkscape:window-y="34"
     inkscape:window-maximized="1"
     inkscape:current-layer="svg-wasi" /><path
     id="path1"
     d="M 24,0 A 24,24 0 0 0 0,24 24,24 0 0 0 24,48 24,24 0 0 0 47.999996,24 24,24 0 0 0 24,0 Z m 0,1 A 23,23 0 0 1 47,24 23,23 0 0 1 24,47 23,23 0 0 1 1,24 23,23 0 0 1 24,1 Z"
     style="fill:#999999;fill-opacity:1" /><path
     id="path2"
     d="M 24,8.6289062 C 16.993379,8.6342262 10.877151,13.375893 9.126953,20.160157 l 6.845703,4.580078 c -0.0168,0.14796 -0.08875,0.248217 -0.203125,0.302734 l -6.728516,-4.5 C 8.772713,21.675884 8.635385,22.835766 8.628906,24 c 0,8.489944 6.881237,15.371094 15.371094,15.371094 8.489608,0 15.371094,-6.881402 15.371094,-15.371094 -0.0042,-0.481172 -0.03281,-0.962493 -0.08398,-1.443359 l -3.251953,5.304688 a 0.175,0.175 0 0 1 -0.240234,0.05859 0.175,0.175 0 0 1 -0.05859,-0.242187 L 39.216806,22.00195 C 38.22791,15.11699 32.520188,8.6377946 24,8.6289062 Z m 0.86914,10.2402348 0.541016,1.558594 1.648438,0.03516 -1.316407,0.994141 0.476563,1.580078 -1.351563,-0.945313 -1.355469,0.941406 0.478516,-1.578124 -1.3125,-0.998047 1.648438,-0.03125 z m -1.517578,2.572266 c 0.14382,0.06399 0.194769,0.174051 0.177735,0.318359 l -5.88086,3.287109 c -0.122895,-0.03019 -0.211316,-0.152637 -0.177734,-0.318359 z m 3.007813,0.02148 7.990234,6.173828 c 0.0032,0.136918 -0.0893,0.257876 -0.222656,0.289063 l -7.990235,-6.175782 c -0.01464,-0.146987 0.101472,-0.288327 0.222657,-0.287109 z m -9.603516,2.154297 0.541016,1.558594 1.648437,0.03516 -1.316406,0.994141 0.476562,1.580078 -1.353515,-0.94336 -1.353516,0.939453 0.478516,-1.578125 -1.3125,-0.998046 1.648437,-0.03125 z m 18.355469,3.060547 0.539062,1.558594 1.650391,0.03516 -1.316406,0.99414 0.476562,1.580078 -1.353515,-0.945312 -1.355469,0.941406 0.480469,-1.578125 -1.3125,-0.998047 1.648437,-0.03125 z"
     style="fill:#999999;fill-opacity:1" /><path
     id="path3"
     d="m 3.48193,20.296859 0.547275,-1.892794 -1.498408,-1.197207 1.88182,-0.03774 0.620455,-1.867949 0.615914,1.869622 1.881811,0.04301 -1.501586,1.193148 0.542951,1.894224 -1.54386,-1.132235 z"
     style="fill:#999999;fill-opacity:1" /><path
     id="path4"
     d="m 41.346113,20.215849 0.592938,-1.863146 -1.469852,-1.227009 1.882964,0.01184 0.665239,-1.836364 0.570883,1.870733 1.880914,0.09197 -1.530105,1.144052 0.497219,1.893248 -1.516447,-1.16349 z"
     style="fill:#999999;fill-opacity:1" /><path
     id="path5"
     d="M 9.159953,20.101274 6.984375,18.638672 c -0.114816,-0.07744 -0.27071,-0.04679 -0.347657,0.06836 -0.07611,0.114435 -0.04558,0.268848 0.06836,0.345703 l 2.32736,1.564642"
     style="fill:#999999;fill-opacity:1" /><path
     id="path6"
     d="m 39.28055,22.675081 2.035856,-3.294221 c 0.07186,-0.118095 0.03424,-0.272093 -0.08398,-0.34375 h -4e-6 c -0.117586,-0.07221 -0.271441,-0.03549 -0.34375,0.08203 l -1.703554,2.812504"
     style="fill:#999999;fill-opacity:1" /><path
     id="text1"
     d="M 7.7472777,11.037829 10.065436,13.379015 9.6242729,14.050588 7.8517303,13.40263 9.1551569,14.764713 8.712778,15.438137 5.6435474,14.240292 6.066481,13.596469 l 1.8883688,0.798202 -1.4423439,-1.477176 0.3621673,-0.551319 1.9388861,0.733395 -1.488,-1.419769 z m 3.3525413,1.125586 -2.2434063,-2.3139367 1.5971883,-1.5485052 0.417557,0.4306847 -1.0393642,1.007684 0.4730262,0.4878972 0.875672,-0.8489813 0.402149,0.4147922 -0.875672,0.8489811 0.534658,0.551467 1.034597,-1.003061 0.416016,0.429095 z m 3.231598,-3.7489033 q -0.08393,-0.1276049 -0.22744,-0.1524373 -0.141659,-0.026049 -0.503874,0.071779 -0.363431,0.095979 -0.643494,0.1132764 -0.279429,0.014232 -0.49072,-0.069345 -0.209441,-0.084793 -0.354195,-0.3048649 -0.227471,-0.3458278 -0.06845,-0.744516 0.159024,-0.3986883 0.606566,-0.693062 0.441993,-0.2907244 0.872714,-0.2481507 0.432569,0.041357 0.683152,0.4223226 l -0.645422,0.4245307 q -0.09975,-0.1516464 -0.257317,-0.185775 -0.156937,-0.037194 -0.345571,0.086881 -0.184934,0.1216421 -0.225729,0.2650507 -0.04201,0.1415593 0.03097,0.2525201 0.07907,0.1202075 0.26511,0.1170623 0.184826,-0.00499 0.464651,-0.083073 0.519063,-0.1453579 0.890169,-0.092716 0.371739,0.049576 0.595561,0.3898553 0.239635,0.3643212 0.09672,0.7391657 -0.142913,0.3748445 -0.594154,0.671651 -0.277402,0.182463 -0.598347,0.2584452 -0.320946,0.075982 -0.619977,-0.016119 -0.299031,-0.092101 -0.508256,-0.4101885 l 0.65097,-0.4281799 q 0.155702,0.2367163 0.340429,0.2476835 0.184727,0.010967 0.414046,-0.139869 0.184935,-0.121642 0.213367,-0.2516206 0.03028,-0.1311951 -0.04149,-0.2403065 z M 15.211588,5.8719798 14.986609,5.3158975 17.483849,4.3055663 17.708828,4.8616486 16.810068,5.2252682 17.793833,7.656846 17.073594,7.9482398 16.089829,5.516662 Z M 21.154494,5.7622468 21.520043,3.4358994 22.528315,3.2787718 23.02458,6.4632495 22.254706,6.5832254 22.13882,5.8395974 21.975958,4.3057585 21.559195,6.6916129 21.051778,6.7706879 19.928793,4.6247856 20.240381,6.1354473 20.356267,6.8790754 19.588581,6.9987105 19.092316,3.8142328 20.098401,3.657446 Z M 25.061451,3.3229073 24.956298,6.5441057 24.181972,6.5188285 24.287125,3.2976301 Z M 29.37651,3.9644309 28.744906,7.1248507 27.98519,6.973023 27.260339,4.7830394 26.867322,6.7496193 26.105435,6.5973578 26.737038,3.436938 l 0.761887,0.1522615 0.724851,2.1899836 0.393017,-1.9665799 z m 2.276148,3.367464 q 0.06002,-0.1404472 0.0015,-0.2737959 -0.05652,-0.1324789 -0.338132,-0.3804043 -0.280738,-0.2499608 -0.449839,-0.4738786 -0.166195,-0.2250833 -0.21322,-0.4473836 -0.04499,-0.2214304 0.05852,-0.4636508 0.162662,-0.3806322 0.582854,-0.4682629 0.420192,-0.087631 0.912775,0.1228726 0.486477,0.2078939 0.688876,0.5904733 0.204435,0.3834492 0.02525,0.8027552 l -0.71042,-0.3035772 q 0.07133,-0.1669083 0.01275,-0.3171148 -0.05567,-0.1513722 -0.263288,-0.2400967 -0.203547,-0.086985 -0.345629,-0.041787 -0.141212,0.043163 -0.193403,0.1652907 -0.05654,0.1323053 0.04883,0.2856605 0.106245,0.1513198 0.325884,0.3414696 0.40786,0.3524294 0.568941,0.6908724 0.163986,0.3372774 0.0039,0.7118032 Q 32.197447,8.0341274 31.806029,8.122019 31.414651,8.209911 30.917997,7.9976678 30.612677,7.8671905 30.372074,7.6416029 30.131471,7.4160152 30.043093,7.115863 29.954714,6.8157108 30.104328,6.4656107 l 0.716485,0.3061868 q -0.111341,0.2605396 -0.01846,0.4205928 0.09288,0.1600532 0.345281,0.2679145 0.203547,0.086985 0.327606,0.038899 0.126094,-0.047216 0.177415,-0.1673087 z M 34.25798,6.6611682 34.597284,6.1664808 36.818814,7.6902215 36.479509,8.1849089 35.679978,7.6365125 34.196303,9.7996289 33.555582,9.3601605 35.039257,7.1970441 Z m 1.436547,4.3097338 2.289218,-2.268625 1.565912,1.580126 -0.426084,0.422251 -1.019011,-1.0282611 -0.482686,0.4783431 0.858526,0.866318 -0.410361,0.40667 -0.858526,-0.866318 -0.545575,0.540668 1.014337,1.023545 -0.424512,0.420692 z m 3.129842,3.755813 0.629597,-1.105318 -0.232541,-0.347776 -0.945806,0.632415 -0.431863,-0.645871 2.679169,-1.791433 0.705007,1.054371 q 0.310056,0.463702 0.285452,0.876908 -0.02153,0.413816 -0.417151,0.678347 -0.309135,0.206704 -0.57191,0.196014 -0.261545,-0.0088 -0.502404,-0.154019 l -0.707326,1.27978 -0.0276,0.01845 z m 1.631755,-2.278679 -0.736035,0.492152 0.273144,0.408499 q 0.246076,0.368018 0.612253,0.123173 0.364338,-0.243616 0.131165,-0.604284 z"
     style="fill:#999999;fill-opacity:1" /><path
     id="text2"
     d="m 2.8737107,22.280851 3.2134927,1.209577 -0.00577,0.732659 -3.2321884,1.165478 0.00659,-0.836692 0.6035278,-0.181192 0.00838,-1.06468 -0.6006007,-0.190671 z m 1.192419,1.215803 -0.00545,0.692817 1.1249655,-0.338681 z m 0.026726,4.417892 q 0.1505285,-0.02586 0.2307071,-0.147446 0.080553,-0.119402 0.1358281,-0.490501 0.057456,-0.371475 0.1536633,-0.635062 0.098763,-0.261781 0.2599002,-0.42198 0.1615116,-0.158018 0.4211187,-0.202623 0.407954,-0.07009 0.7097074,0.235169 0.3017535,0.305263 0.3924639,0.833203 0.089586,0.521396 -0.1217724,0.8991 -0.2109834,0.379885 -0.6603873,0.457102 L 5.4832674,27.680139 q 0.1788889,-0.03074 0.273214,-0.161488 0.096881,-0.128945 0.058648,-0.351466 -0.037484,-0.218157 -0.1525895,-0.312924 -0.1129242,-0.09514 -0.2438185,-0.07265 -0.1418022,0.02436 -0.2133596,0.196123 -0.069376,0.171385 -0.1097842,0.459075 -0.074474,0.533862 -0.2712062,0.852904 Q 4.630196,28.610561 4.2287867,28.679531 3.799017,28.753371 3.5126694,28.472415 3.2263218,28.191456 3.1348618,27.659153 3.0786358,27.331917 3.1374218,27.00738 3.1962048,26.682843 3.400261,26.445645 3.6043171,26.208446 3.9795475,26.143974 l 0.1319424,0.767914 q -0.2792412,0.04798 -0.3632058,0.212886 -0.083965,0.164907 -0.037485,0.435422 0.037484,0.218157 0.1452276,0.296222 0.1081189,0.08025 0.2368316,0.05813 z M 6.1080544,28.954019 6.673023,28.752391 7.578488,31.289537 7.0135195,31.491165 6.6876413,30.578043 4.2172069,31.459699 3.956058,30.72795 6.4264924,29.846294 Z M 5.8999131,34.933138 6.6064621,33.875353 6.3992209,33.511932 5.4108675,34.07554 5.0259909,33.400614 7.8256844,31.804089 8.4539873,32.905891 q 0.2763216,0.484562 0.2224184,0.894976 -0.050884,0.411239 -0.4643001,0.64699 -0.3230416,0.184214 -0.5843928,0.154879 -0.2602546,-0.02741 -0.4901886,-0.18933 l -0.7964787,1.226282 -0.028843,0.01645 z m 1.7895511,-2.156968 -0.7691465,0.438606 0.2434262,0.426876 q 0.2193029,0.384574 0.6019533,0.166367 0.3807276,-0.21711 0.1737723,-0.593435 z m 2.2325661,4.925006 Q 9.3566174,38.177523 8.7777285,38.150023 8.1988395,38.122523 7.8009334,37.650217 7.400175,37.174525 7.4699153,36.597676 7.5410819,36.022521 8.1064948,35.546174 l 0.099878,-0.08414 q 0.5654129,-0.476346 1.1428757,-0.450539 0.5805819,0.02607 0.9813405,0.501766 0.397906,0.472306 0.326473,1.05058 -0.06974,0.576849 -0.635153,1.053195 z M 9.5175719,37.011523 Q 9.8899996,36.697762 9.9780732,36.420956 10.066147,36.144149 9.8650545,35.905457 9.4913936,35.46193 8.808362,35.991057 l -0.1927186,0.159466 q -0.3622705,0.305204 -0.4571156,0.587715 -0.093419,0.284204 0.1062473,0.521203 0.1896828,0.22515 0.4836607,0.185876 0.2970968,-0.03901 0.655715,-0.338239 z m 4.2117321,1.730131 -2.035289,2.498954 -0.600711,-0.489252 0.382563,-2.274881 -1.266465,1.554981 -0.6024262,-0.49065 2.0352892,-2.498955 0.602427,0.490651 -0.382563,2.274881 1.266465,-1.554982 z m 2.178417,3.15881 q -0.352047,0.650123 -0.900895,0.836228 -0.548847,0.186106 -1.091914,-0.10797 -0.54696,-0.296183 -0.693005,-0.858579 -0.144098,-0.561342 0.207949,-1.211465 l 0.06219,-0.114842 q 0.352048,-0.650123 0.898949,-0.837283 0.549901,-0.188052 1.096861,0.108132 0.543067,0.294076 0.688058,0.858418 0.146045,0.562395 -0.206003,1.212519 z m -0.62865,-0.493972 q 0.231888,-0.428224 0.212632,-0.718066 -0.01925,-0.289841 -0.293708,-0.43846 -0.509977,-0.276157 -0.952194,0.466104 l -0.121053,0.218898 q -0.225563,0.416546 -0.210523,0.714174 0.01699,0.298681 0.289492,0.446246 0.258882,0.140186 0.518134,-0.0039 0.262252,-0.144954 0.4866,-0.554607 z m 2.945382,1.907008 1.331359,-1.942421 0.977712,0.292202 -0.922877,3.087956 -0.746539,-0.223113 0.215507,-0.721089 0.513264,-1.45456 -1.403201,1.974087 -0.492037,-0.147052 -0.08988,-2.420313 -0.369046,1.497662 -0.215507,0.721089 -0.744418,-0.222479 0.922877,-3.087957 0.97559,0.291568 z M 22.128952,41.822481 21.72344,45.019782 20.954858,44.922302 21.36037,41.725 Z m 2.752406,2.214759 0.774657,-0.01122 q -0.017,0.5072 -0.368793,0.826652 -0.35179,0.319452 -0.94717,0.328077 -0.639646,0.0093 -1.004165,-0.397215 -0.36452,-0.406481 -0.383633,-1.114611 l -0.003,-0.210264 q -0.01055,-0.728178 0.352982,-1.154061 0.365711,-0.428129 0.978797,-0.43701 0.630793,-0.0091 0.971993,0.315771 0.341168,0.322696 0.392713,0.824476 l -0.774658,0.01122 q -0.0128,-0.272109 -0.143189,-0.409688 -0.128178,-0.13761 -0.438041,-0.133122 -0.285517,0.0041 -0.421781,0.225274 -0.136296,0.218924 -0.131199,0.72359 l 0.0029,0.196985 q 0.0074,0.513487 0.141263,0.735139 0.133791,0.21944 0.450294,0.214855 0.54226,-0.0079 0.550123,-0.534848 z m 1.707371,1.000218 0.534724,-3.391707 0.718688,-0.142517 1.795038,2.929713 -0.820736,0.162753 -0.299499,-0.554415 -1.044377,0.207101 -0.06527,0.62675 z m 0.949541,-1.413651 0.679605,-0.134767 -0.559184,-1.033231 z m 4.861049,-0.842951 0.213212,0.558331 -1.989311,0.759667 -1.149767,-3.010849 0.72583,-0.277176 0.936555,2.452519 z m 3.768133,-2.545959 q -0.08864,-0.124382 -0.232973,-0.143839 -0.142532,-0.02074 -0.500842,0.09054 -0.359595,0.10948 -0.638817,0.137221 -0.278703,0.02465 -0.492967,-0.05098 -0.212461,-0.07691 -0.36533,-0.291428 -0.240223,-0.337095 -0.0962,-0.741442 0.144028,-0.404347 0.580267,-0.715224 0.430832,-0.307023 0.862841,-0.28056 0.433812,0.02518 0.698443,0.396524 l -0.629122,0.44833 q -0.105339,-0.147816 -0.264073,-0.176038 -0.158217,-0.03131 -0.342087,0.09972 -0.180264,0.128462 -0.215676,0.273293 -0.0367,0.143029 0.04038,0.251188 0.0835,0.117172 0.269295,0.107083 0.184511,-0.01189 0.461226,-0.100363 0.513275,-0.164635 0.886087,-0.125885 0.373331,0.03566 0.6097,0.367349 0.253069,0.355121 0.12425,0.735039 -0.128819,0.379919 -0.568664,0.693365 -0.270397,0.192693 -0.588282,0.280604 -0.317885,0.08791 -0.620146,0.007 -0.302261,-0.08087 -0.523215,-0.390928 l 0.63453,-0.452184 q 0.164431,0.230738 0.349439,0.234801 0.185008,0.0041 0.408535,-0.15523 0.180265,-0.128461 0.203825,-0.259411 0.02536,-0.132234 -0.05043,-0.23859 z m 2.846274,-3.566029 q 0.529417,0.516058 0.558728,1.094858 0.02931,0.5788 -0.401767,1.021037 -0.434168,0.445408 -1.015074,0.432482 -0.57936,-0.01451 -1.108777,-0.530569 l -0.09352,-0.09116 q -0.529417,-0.516058 -0.560273,-1.093273 -0.0309,-0.580345 0.403272,-1.025753 0.431078,-0.442237 1.013568,-0.427766 0.580906,0.01293 1.110323,0.528984 z m -0.646739,0.470039 q -0.348718,-0.339918 -0.632817,-0.400467 -0.2841,-0.06055 -0.501957,0.162948 -0.404811,0.415291 0.188649,1.043234 l 0.177569,0.17618 q 0.339207,0.330647 0.629647,0.397376 0.291985,0.06514 0.508297,-0.156767 0.205496,-0.210816 0.137627,-0.499536 -0.06791,-0.29185 -0.400815,-0.619448 z m 2.616732,-2.470197 0.43126,-0.643611 q 0.407552,0.302395 0.470295,0.773424 0.06274,0.471029 -0.268711,0.965691 -0.356097,0.531439 -0.897743,0.600155 -0.541645,0.06872 -1.135018,-0.318222 l -0.174695,-0.117056 q -0.604994,-0.405384 -0.748611,-0.946591 -0.144223,-0.544278 0.197088,-1.053651 0.351168,-0.524083 0.812453,-0.620001 0.459445,-0.09715 0.901517,0.145775 l -0.43126,0.643611 q -0.231112,-0.144201 -0.418428,-0.115172 -0.186084,0.02719 -0.358587,0.284634 -0.15895,0.237217 -0.05453,0.475052 0.102584,0.236603 0.520619,0.519376 l 0.163661,0.109663 q 0.426623,0.285864 0.685049,0.301819 0.256587,0.01472 0.432787,-0.248239 0.301882,-0.450528 -0.127149,-0.756657 z m -0.680878,-3.228317 2.902473,1.40101 -0.336781,0.69771 -2.902473,-1.40101 z m 3.446867,0.169207 -3.060935,-1.008887 0.696382,-2.112802 0.569721,0.187781 -0.453168,1.374897 0.645403,0.212726 0.381798,-1.158362 0.548697,0.180851 -0.381797,1.158362 0.729495,0.240443 0.451089,-1.368591 0.567618,0.187087 z m -1.649652,-3.474275 -0.593045,-0.09023 0.4052,-2.66323 0.593045,0.09023 -0.145832,0.9585 2.593202,0.394546 -0.116865,0.768113 -2.593203,-0.394546 z m -0.174932,-3.948575 1.385144,-0.624803 -1.412102,-0.563562 -0.01898,-0.836503 2.088196,0.988833 1.157383,-0.02626 0.01792,0.79003 -1.157383,0.02625 -2.041158,1.084721 z"
     style="fill:#999999;fill-opacity:1" /><text
     xml:space="preserve"
     style="font-size:16px;line-height:1.3;font-family:'Source Sans 3';-inkscape-font-specification:'Source Sans 3, ';text-align:start;letter-spacing:0px;writing-mode:lr-tb;direction:ltr;text-anchor:start;fill:#999999;stroke:#ff0000;stroke-width:0.628;stroke-linecap:round"
     x="53.676121"
     y="23.608896"
     id="text3"><tspan
       sodipodi:role="line"
       id="tspan1"
       x="53.676121"
       y="23.608896"
       style="font-style:normal;font-variant:normal;font-weight:500;font-stretch:condensed;font-size:16px;font-family:'IBM Plex Sans Condensed';-inkscape-font-specification:'IBM Plex Sans Condensed,  Medium Condensed';fill:#999999;stroke:none">Westminster</tspan></text><text
     xml:space="preserve"
     style="font-size:16px;line-height:1.3;font-family:'Source Sans 3';-inkscape-font-specification:'Source Sans 3, ';text-align:start;letter-spacing:0px;writing-mode:lr-tb;direction:ltr;text-anchor:start;fill:#999999;stroke:#ff0000;stroke-width:0.628;stroke-linecap:round"
     x="49.48074"
     y="39.911221"
     id="text3-2"><tspan
       sodipodi:role="line"
       id="tspan1-6"
       x="49.48074"
       y="39.911221"
       style="font-style:normal;font-variant:normal;font-weight:500;font-stretch:condensed;font-size:16px;font-family:'IBM Plex Sans Condensed';-inkscape-font-specification:'IBM Plex Sans Condensed,  Medium Condensed';fill:#999999;stroke:none">Astronomical Society</tspan></text></svg>
